# xmcd CD database file
#
# Track frame offsets:
#	150
#	22742
#	51427
#	73682
#	101897
#	147097
#	163537
#	189280
#
# Disc length: 2698 seconds
#
# Revision: 5
# Processed by: cddbd v1.5.2PL0 Copyright (c) Steve Scherf et al.
# Submitted via: CDex 1.51
#
DISCID=670a8808
DTITLE=Buddy Guy and Junior Wells with Byll Wyman, Pinetop Perkins, Dallas Taylor and Terry Tailor - Drinkin' TNT 'N' Smokin' Dynamite
DYEAR=1900
DGENRE=Blues
TTITLE0=Ah'w Baby - Everything Gonna Be Alright
TTITLE1=How Can One Woman Be So Mean
TTITLE2=Checking On My Baby
TTITLE3=When You See The Tears From My Eyes
TTITLE4=Ten Years Ago
TTITLE5=Messing With The Kid
TTITLE6=Hoodoo Man Blues
TTITLE7=My Younger Days
EXTD=
EXTT0=
EXTT1=
EXTT2=
EXTT3=
EXTT4=
EXTT5=
EXTT6=
EXTT7=
PLAYORDER=
